<?xml version="1.0" encoding="UTF-8" standalone="no"?><!-- Generator: Gravit.io --><svg xmlns="http://www.w3.org/2000/svg" xmlns:xlink="http://www.w3.org/1999/xlink" style="isolation:isolate" viewBox="0 0 100 100" width="100pt" height="100pt"><defs><clipPath id="_clipPath_vjxoJi6R5LzXMDCxtV2ZWJsVQgEhcA5m"><rect width="100" height="100"/></clipPath></defs><g clip-path="url(#_clipPath_vjxoJi6R5LzXMDCxtV2ZWJsVQgEhcA5m)"><path d="M 15 0 L 85.01 0 C 93.289 0 100.01 6.721 100.01 15 L 100.01 85 C 100.01 93.279 93.289 100 85.01 100 L 15 100 C 6.721 100 0 93.279 0 85 L 0 15 C 0 6.721 6.721 0 15 0 Z" style="stroke:none;fill:#FFFFFF;stroke-miterlimit:10;"/><g><path d=" M 94.723 6.783 C 94.529 6.583 94.268 6.475 93.983 6.487 L 57.99 7.975 C 57.745 7.985 57.513 8.087 57.339 8.261 L 14.507 51.094 C 14.375 51.224 14.284 51.388 14.244 51.569 L 5.024 92.319 C 4.954 92.634 5.042 92.965 5.262 93.201 C 5.449 93.402 5.708 93.513 5.978 93.513 C 6.026 93.513 6.077 93.509 6.125 93.501 L 47.916 87.105 C 48.12 87.073 48.312 86.976 48.46 86.83 L 92.332 42.957 C 92.499 42.79 92.601 42.569 92.617 42.332 L 94.997 7.53 C 95.017 7.253 94.917 6.981 94.723 6.783 Z " fill="rgb(243,230,251)"/><path d=" M 19.219 64.528 L 36.454 81.764 L 8.562 91.15 L 7.25 91.35 L 7.444 90.488 L 19.219 64.528 Z " fill="rgb(243,230,251)"/><path d=" M 37.344 82.495 L 45.029 85.568 L 14.185 90.29 L 37.344 82.495 Z " fill="rgb(243,230,251)"/><path d=" M 37.358 81.283 L 19.757 63.681 L 62.492 20.949 L 80.094 38.547 L 37.358 81.283 Z " fill="rgb(243,230,251)"/><path d=" M 62.767 19.618 L 58.928 9.893 L 89.888 8.614 L 62.767 19.618 Z " fill="rgb(243,230,251)"/><path d=" M 80.619 37.689 L 63.359 20.43 L 92.784 8.494 L 92.971 8.486 L 92.954 8.723 L 80.619 37.689 Z " fill="rgb(243,230,251)"/><path d=" M 58.045 10.321 L 61.919 20.136 L 19.355 62.701 L 16.005 52.655 L 16.09 52.276 L 58.045 10.321 Z " fill="rgb(243,230,251)"/><path d=" M 15.588 54.499 L 18.597 63.53 L 8.513 85.765 L 15.588 54.499 Z " fill="rgb(243,230,251)"/><path d=" M 47.304 85.221 L 46.932 85.28 L 38.229 81.797 L 80.914 39.109 L 90.226 42.298 L 47.304 85.221 Z " fill="rgb(243,230,251)"/><path d=" M 90.72 41.433 L 81.441 38.256 L 92.753 11.696 L 90.72 41.433 Z " fill="rgb(243,230,251)"/></g><path d=" M 94.723 6.783 C 94.529 6.583 94.268 6.475 93.983 6.487 L 57.99 7.975 C 57.745 7.985 57.513 8.087 57.339 8.261 L 14.507 51.094 C 14.375 51.224 14.284 51.388 14.244 51.569 L 5.024 92.319 C 4.954 92.634 5.042 92.965 5.262 93.201 C 5.449 93.402 5.708 93.513 5.978 93.513 C 6.026 93.513 6.077 93.509 6.125 93.501 L 47.916 87.105 C 48.12 87.073 48.312 86.976 48.46 86.83 L 92.332 42.957 C 92.499 42.79 92.601 42.569 92.617 42.332 L 94.997 7.53 C 95.017 7.253 94.917 6.981 94.723 6.783 Z  M 19.219 64.528 L 36.454 81.764 L 8.562 91.15 L 7.25 91.35 L 7.444 90.488 L 19.219 64.528 Z  M 37.344 82.495 L 45.029 85.568 L 14.185 90.29 L 37.344 82.495 Z  M 37.358 81.283 L 19.757 63.681 L 62.492 20.949 L 80.094 38.547 L 37.358 81.283 Z  M 62.767 19.618 L 58.928 9.893 L 89.888 8.614 L 62.767 19.618 Z  M 80.619 37.689 L 63.359 20.43 L 92.784 8.494 L 92.971 8.486 L 92.954 8.723 L 80.619 37.689 Z  M 58.045 10.321 L 61.919 20.136 L 19.355 62.701 L 16.005 52.655 L 16.09 52.276 L 58.045 10.321 Z  M 15.588 54.499 L 18.597 63.53 L 8.513 85.765 L 15.588 54.499 Z  M 47.304 85.221 L 46.932 85.28 L 38.229 81.797 L 80.914 39.109 L 90.226 42.298 L 47.304 85.221 Z  M 90.72 41.433 L 81.441 38.256 L 92.753 11.696 L 90.72 41.433 Z " fill="rgb(133,0,204)"/></g></svg>