<?xml version="1.0" encoding="UTF-8" standalone="no"?><!-- Generator: Gravit.io --><svg xmlns="http://www.w3.org/2000/svg" xmlns:xlink="http://www.w3.org/1999/xlink" style="isolation:isolate" viewBox="0 0 100 100" width="100pt" height="100pt"><defs><clipPath id="_clipPath_dPT2pI4y6lAATnQYNLU9m3kT5mQcOXwh"><rect width="100" height="100"/></clipPath></defs><g clip-path="url(#_clipPath_dPT2pI4y6lAATnQYNLU9m3kT5mQcOXwh)"><path d="M 14.995 0 L 85.005 0 C 93.284 0 100.005 6.721 100.005 15 L 100.005 85 C 100.005 93.279 93.284 100 85.005 100 L 14.995 100 C 6.716 100 -0.005 93.279 -0.005 85 L -0.005 15 C -0.005 6.721 6.716 0 14.995 0 Z" style="stroke:none;fill:#FFFFFF;stroke-miterlimit:10;"/><g><path d=" M 88 42.496 C 88.001 42.466 87.993 42.437 87.99 42.407 C 87.986 42.367 87.981 42.329 87.97 42.29 C 87.964 42.268 87.96 42.245 87.951 42.222 C 87.947 42.213 87.95 42.205 87.946 42.196 C 87.937 42.176 87.919 42.164 87.91 42.144 C 87.89 42.108 87.872 42.077 87.846 42.044 C 87.835 42.03 87.83 42.013 87.817 41.998 L 50.529 0.906 C 50.52 0.897 50.509 0.893 50.5 0.884 C 50.492 0.876 50.489 0.864 50.479 0.856 C 50.452 0.83 50.417 0.822 50.388 0.802 C 50.348 0.775 50.309 0.746 50.265 0.729 C 50.222 0.712 50.179 0.705 50.134 0.698 C 50.09 0.689 50.046 0.678 50 0.678 C 49.954 0.678 49.912 0.689 49.866 0.698 C 49.822 0.706 49.778 0.712 49.735 0.729 C 49.692 0.746 49.655 0.775 49.615 0.8 C 49.584 0.82 49.55 0.83 49.521 0.857 C 49.513 0.866 49.508 0.877 49.5 0.886 C 49.491 0.894 49.48 0.897 49.471 0.906 L 12.181 42 C 12.168 42.014 12.165 42.03 12.154 42.045 C 12.128 42.078 12.107 42.112 12.088 42.149 C 12.078 42.168 12.063 42.179 12.054 42.199 C 12.051 42.206 12.053 42.215 12.05 42.223 C 12.041 42.246 12.037 42.269 12.03 42.292 C 12.019 42.332 12.014 42.37 12.01 42.412 C 12.007 42.44 12 42.467 12 42.496 C 12 42.518 12.006 42.538 12.009 42.561 C 12.013 42.6 12.023 42.637 12.034 42.675 C 12.043 42.704 12.046 42.734 12.058 42.761 C 12.068 42.784 12.084 42.801 12.095 42.822 C 12.104 42.839 12.105 42.858 12.117 42.873 L 49.407 99 C 49.455 99.074 49.52 99.139 49.595 99.191 C 49.599 99.194 49.602 99.198 49.607 99.203 L 49.607 99.203 C 49.617 99.21 49.628 99.207 49.638 99.213 C 49.748 99.278 49.867 99.32 49.994 99.321 C 49.996 99.321 49.997 99.322 50 99.322 C 50 99.322 50 99.322 50 99.322 L 50 99.322 L 50 99.322 C 50 99.322 50 99.322 50 99.322 C 50.001 99.322 50.003 99.321 50.006 99.321 C 50.132 99.32 50.254 99.278 50.362 99.213 C 50.372 99.207 50.383 99.21 50.393 99.203 L 50.393 99.203 C 50.398 99.198 50.4 99.194 50.405 99.191 C 50.48 99.139 50.546 99.074 50.593 99 L 87.883 42.873 C 87.894 42.858 87.894 42.839 87.904 42.823 C 87.916 42.802 87.933 42.784 87.941 42.761 C 87.953 42.732 87.957 42.702 87.966 42.672 C 87.977 42.635 87.987 42.598 87.991 42.56 C 87.994 42.538 88 42.518 88 42.496 Z " fill="rgb(251,219,242)"/><path d=" M 68.674 50.71 L 50 96.714 L 31.327 50.71 L 68.674 50.71 Z " fill="rgb(251,219,242)"/><path d=" M 31.327 49.285 L 50 3.279 L 68.673 49.285 L 31.327 49.285 Z " fill="rgb(251,219,242)"/><path d=" M 70.118 49.057 L 52.17 4.835 L 86.092 42.216 L 70.118 49.057 Z " fill="rgb(251,219,242)"/><path d=" M 29.882 49.057 L 13.908 42.216 L 47.831 4.835 L 29.882 49.057 Z " fill="rgb(251,219,242)"/><path d=" M 29.719 50.538 L 46.679 92.322 L 14.625 44.073 L 29.719 50.538 Z " fill="rgb(251,219,242)"/><path d=" M 70.28 50.539 L 85.376 44.073 L 53.321 92.323 L 70.28 50.539 Z " fill="rgb(251,219,242)"/></g><g><path d=" M 88 42.496 C 88.001 42.466 87.993 42.437 87.99 42.407 C 87.986 42.367 87.981 42.329 87.97 42.29 C 87.964 42.268 87.96 42.245 87.951 42.222 C 87.947 42.213 87.95 42.205 87.946 42.196 C 87.937 42.176 87.919 42.164 87.91 42.144 C 87.89 42.108 87.872 42.077 87.846 42.044 C 87.835 42.03 87.83 42.013 87.817 41.998 L 50.529 0.906 C 50.52 0.897 50.509 0.893 50.5 0.884 C 50.492 0.876 50.489 0.864 50.479 0.856 C 50.452 0.83 50.417 0.822 50.388 0.802 C 50.348 0.775 50.309 0.746 50.265 0.729 C 50.222 0.712 50.179 0.705 50.134 0.698 C 50.09 0.689 50.046 0.678 50 0.678 C 49.954 0.678 49.912 0.689 49.866 0.698 C 49.822 0.706 49.778 0.712 49.735 0.729 C 49.692 0.746 49.655 0.775 49.615 0.8 C 49.584 0.82 49.55 0.83 49.521 0.857 C 49.513 0.866 49.508 0.877 49.5 0.886 C 49.491 0.894 49.48 0.897 49.471 0.906 L 12.181 42 C 12.168 42.014 12.165 42.03 12.154 42.045 C 12.128 42.078 12.107 42.112 12.088 42.149 C 12.078 42.168 12.063 42.179 12.054 42.199 C 12.051 42.206 12.053 42.215 12.05 42.223 C 12.041 42.246 12.037 42.269 12.03 42.292 C 12.019 42.332 12.014 42.37 12.01 42.412 C 12.007 42.44 12 42.467 12 42.496 C 12 42.518 12.006 42.538 12.009 42.561 C 12.013 42.6 12.023 42.637 12.034 42.675 C 12.043 42.704 12.046 42.734 12.058 42.761 C 12.068 42.784 12.084 42.801 12.095 42.822 C 12.104 42.839 12.105 42.858 12.117 42.873 L 49.407 99 C 49.455 99.074 49.52 99.139 49.595 99.191 C 49.599 99.194 49.602 99.198 49.607 99.203 L 49.607 99.203 C 49.617 99.21 49.628 99.207 49.638 99.213 C 49.748 99.278 49.867 99.32 49.994 99.321 C 49.996 99.321 49.997 99.322 50 99.322 C 50 99.322 50 99.322 50 99.322 L 50 99.322 L 50 99.322 C 50 99.322 50 99.322 50 99.322 C 50.001 99.322 50.003 99.321 50.006 99.321 C 50.132 99.32 50.254 99.278 50.362 99.213 C 50.372 99.207 50.383 99.21 50.393 99.203 L 50.393 99.203 C 50.398 99.198 50.4 99.194 50.405 99.191 C 50.48 99.139 50.546 99.074 50.593 99 L 87.883 42.873 C 87.894 42.858 87.894 42.839 87.904 42.823 C 87.916 42.802 87.933 42.784 87.941 42.761 C 87.953 42.732 87.957 42.702 87.966 42.672 C 87.977 42.635 87.987 42.598 87.991 42.56 C 87.994 42.538 88 42.518 88 42.496 Z  M 68.674 50.71 L 50 96.714 L 31.327 50.71 L 68.674 50.71 Z  M 31.327 49.285 L 50 3.279 L 68.673 49.285 L 31.327 49.285 Z  M 70.118 49.057 L 52.17 4.835 L 86.092 42.216 L 70.118 49.057 Z  M 29.882 49.057 L 13.908 42.216 L 47.831 4.835 L 29.882 49.057 Z  M 29.719 50.538 L 46.679 92.322 L 14.625 44.073 L 29.719 50.538 Z  M 70.28 50.539 L 85.376 44.073 L 53.321 92.323 L 70.28 50.539 Z " fill="rgb(230,0,168)"/></g></g></svg>