<?xml version="1.0" encoding="UTF-8" standalone="no"?><!-- Generator: Gravit.io --><svg xmlns="http://www.w3.org/2000/svg" xmlns:xlink="http://www.w3.org/1999/xlink" style="isolation:isolate" viewBox="0 0 20 20" width="20pt" height="20pt"><defs><clipPath id="_clipPath_3BSHyJxCu6DYI0MVKruuH0DTLDgGtaNj"><rect width="20" height="20"/></clipPath></defs><g clip-path="url(#_clipPath_3BSHyJxCu6DYI0MVKruuH0DTLDgGtaNj)"><g><mask id="_mask_yDC4QoQYZUcxqQIfr40KIw3Bp8sbAYJd" x="-200%" y="-200%" width="400%" height="400%"><rect x="-200%" y="-200%" width="400%" height="400%" style="fill:white;"/><path d=" M 8.812 1.096 L 4.441 3.896 L 0.902 8.677 L 2.529 13.799 L 5.398 18.444 L 11.34 18.904 L 16.257 17.693 L 19.098 12.16 L 18.648 6.628 L 14.755 2.666 L 8.812 1.096 Z " fill="black" stroke="none"/></mask><path d=" M 8.812 1.096 L 4.441 3.896 L 0.902 8.677 L 2.529 13.799 L 5.398 18.444 L 11.34 18.904 L 16.257 17.693 L 19.098 12.16 L 18.648 6.628 L 14.755 2.666 L 8.812 1.096 Z " fill="none" mask="url(#_mask_yDC4QoQYZUcxqQIfr40KIw3Bp8sbAYJd)" vector-effect="non-scaling-stroke" stroke-width="1.428" stroke="rgb(0,115,230)" stroke-linejoin="miter" stroke-linecap="butt" stroke-miterlimit="10"/><path d=" M 8.812 1.096 L 4.441 3.896 L 0.902 8.677 L 2.529 13.799 L 5.398 18.444 L 11.34 18.904 L 16.257 17.693 L 19.098 12.16 L 18.648 6.628 L 14.755 2.666 L 8.812 1.096 Z " fill="none"/><mask id="_mask_pFWmcT65RjgxLkBJwqQqnW8u2EjMQ8PP" x="-200%" y="-200%" width="400%" height="400%"><rect x="-200%" y="-200%" width="400%" height="400%" style="fill:white;"/><path d=" M 2.665 10 L 8.061 4.715 L 15.028 8.472 L 13.389 16.122 L 5.739 16.804 L 2.665 10 Z " fill="black" stroke="none"/></mask><path d=" M 2.665 10 L 8.061 4.715 L 15.028 8.472 L 13.389 16.122 L 5.739 16.804 L 2.665 10 Z " fill="none" mask="url(#_mask_pFWmcT65RjgxLkBJwqQqnW8u2EjMQ8PP)" vector-effect="non-scaling-stroke" stroke-width="1.428" stroke="rgb(0,115,230)" stroke-linejoin="miter" stroke-linecap="butt" stroke-miterlimit="10"/><path d=" M 2.665 10 L 8.061 4.715 L 15.028 8.472 L 13.389 16.122 L 5.739 16.804 L 2.665 10 Z " fill="none"/><mask id="_mask_nHf06sT4YjZ9NqkGZ6M1cj5HuEo9Y7W0" x="-200%" y="-200%" width="400%" height="400%"><rect x="-200%" y="-200%" width="400%" height="400%" style="fill:white;"/><line x1="8.061" y1="4.715" x2="8.812" y2="1.096" fill="black" stroke="none"/></mask><line x1="8.061" y1="4.715" x2="8.812" y2="1.096" mask="url(#_mask_nHf06sT4YjZ9NqkGZ6M1cj5HuEo9Y7W0)" vector-effect="non-scaling-stroke" stroke-width="1.428" stroke="rgb(0,115,230)" stroke-linejoin="miter" stroke-linecap="butt" stroke-miterlimit="10"/><mask id="_mask_5UX6J9PBtlRsHGt7ucdln7ecgINzwpvT" x="-200%" y="-200%" width="400%" height="400%"><rect x="-200%" y="-200%" width="400%" height="400%" style="fill:white;"/><line x1="15.028" y1="8.472" x2="18.648" y2="6.628" fill="black" stroke="none"/></mask><line x1="15.028" y1="8.472" x2="18.648" y2="6.628" mask="url(#_mask_5UX6J9PBtlRsHGt7ucdln7ecgINzwpvT)" vector-effect="non-scaling-stroke" stroke-width="1.428" stroke="rgb(0,115,230)" stroke-linejoin="miter" stroke-linecap="butt" stroke-miterlimit="10"/><mask id="_mask_Lwru2QDVjg3svLEkWJCAYoVjLNDy6H9W" x="-200%" y="-200%" width="400%" height="400%"><rect x="-200%" y="-200%" width="400%" height="400%" style="fill:white;"/><line x1="13.389" y1="16.122" x2="16.257" y2="17.693" fill="black" stroke="none"/></mask><line x1="13.389" y1="16.122" x2="16.257" y2="17.693" mask="url(#_mask_Lwru2QDVjg3svLEkWJCAYoVjLNDy6H9W)" vector-effect="non-scaling-stroke" stroke-width="1.428" stroke="rgb(0,115,230)" stroke-linejoin="miter" stroke-linecap="butt" stroke-miterlimit="10"/><mask id="_mask_DixogBJi3Y2t3zV3DqhbKzi6sVi3j0LL" x="-200%" y="-200%" width="400%" height="400%"><rect x="-200%" y="-200%" width="400%" height="400%" style="fill:white;"/><line x1="5.739" y1="16.804" x2="5.398" y2="18.444" fill="black" stroke="none"/></mask><line x1="5.739" y1="16.804" x2="5.398" y2="18.444" mask="url(#_mask_DixogBJi3Y2t3zV3DqhbKzi6sVi3j0LL)" vector-effect="non-scaling-stroke" stroke-width="1.428" stroke="rgb(0,115,230)" stroke-linejoin="miter" stroke-linecap="butt" stroke-miterlimit="10"/><mask id="_mask_KmXyEJ1hS0yg8vhmX2zz8fAby3KZ71Hg" x="-200%" y="-200%" width="400%" height="400%"><rect x="-200%" y="-200%" width="400%" height="400%" style="fill:white;"/><line x1="2.665" y1="10" x2="0.902" y2="8.677" fill="black" stroke="none"/></mask><line x1="2.665" y1="10" x2="0.902" y2="8.677" mask="url(#_mask_KmXyEJ1hS0yg8vhmX2zz8fAby3KZ71Hg)" vector-effect="non-scaling-stroke" stroke-width="1.428" stroke="rgb(0,115,230)" stroke-linejoin="miter" stroke-linecap="butt" stroke-miterlimit="10"/></g></g></svg>