<?xml version="1.0" encoding="UTF-8" standalone="no"?><!-- Generator: Gravit.io --><svg xmlns="http://www.w3.org/2000/svg" xmlns:xlink="http://www.w3.org/1999/xlink" style="isolation:isolate" viewBox="0 0 100 100" width="100pt" height="100pt"><defs><clipPath id="_clipPath_JuMkGKPtYXOUpYozDxMESyfa3V3eb3QP"><rect width="100" height="100"/></clipPath></defs><g clip-path="url(#_clipPath_JuMkGKPtYXOUpYozDxMESyfa3V3eb3QP)"><path d="M 15 0 L 85.01 0 C 93.289 0 100.01 6.721 100.01 15 L 100.01 85 C 100.01 93.279 93.289 100 85.01 100 L 15 100 C 6.721 100 0 93.279 0 85 L 0 15 C 0 6.721 6.721 0 15 0 Z" style="stroke:none;fill:#FFFFFF;stroke-miterlimit:10;"/><g><path d=" M 97.722 44.78 C 97.842 50.588 98.128 56.398 98.034 62.201 C 97.943 67.84 97.475 73.473 97.14 79.107 C 97.077 80.179 96.884 81.245 96.72 82.308 C 96.17 85.882 93.381 87.975 91.246 90.488 C 90.201 91.466 89.21 92.498 88.276 93.582 C 86.206 96.649 83.097 97.373 79.78 97.559 C 71.53 98.023 63.273 98.37 55.021 98.791 C 52.006 98.945 48.979 99.036 45.987 99.399 C 40.902 100.016 35.823 99.586 30.741 99.605 C 27.723 99.617 24.707 99.885 21.688 99.986 C 20.734 100.031 19.777 99.966 18.837 99.794 C 18.139 99.689 17.486 99.384 16.957 98.917 C 14.882 96.737 12.925 94.445 10.877 92.238 C 10.051 91.269 9.114 90.4 8.087 89.648 C 5.706 87.891 3.861 85.505 2.761 82.758 C 1.613 80.344 2.016 77.741 2.014 75.222 C 2.008 68.139 2.15 61.057 2.235 53.974 C 2.332 45.859 2.493 37.745 2.497 29.63 C 2.344 26.133 2.614 22.631 3.301 19.199 C 3.529 18.209 3.994 17.29 4.658 16.521 C 8.603 12.261 12.643 8.088 16.636 3.872 C 18.121 2.175 20.212 1.128 22.46 0.953 C 32.15 0.289 41.852 0.099 51.561 0.131 C 54.505 0.141 57.451 -0.055 60.393 0.015 C 65.083 0.127 69.77 0.37 74.457 0.585 C 76.04 0.608 77.621 0.734 79.189 0.959 C 82.372 1.521 84.405 3.782 86.397 6.092 Q 90.046 10.324 93.803 14.463 C 95.508 16.028 96.573 18.17 96.79 20.474 C 96.907 23.409 97.265 26.334 97.371 29.269 C 97.559 34.437 97.635 39.609 97.758 44.78 L 97.722 44.78 Z " fill="rgb(219,253,202)"/><path d=" M 36.511 62.717 C 36.238 61.625 36.053 60.513 35.957 59.392 C 35.863 54.061 35.893 48.729 35.815 43.398 C 35.782 41.115 35.595 38.834 35.495 36.891 C 32.104 35.309 29.039 33.986 26.083 32.453 C 25.591 32.115 24.983 31.99 24.398 32.106 C 23.812 32.221 23.298 32.568 22.971 33.068 C 22.241 33.904 21.518 34.751 20.734 35.534 C 16.799 39.463 12.822 43.35 8.913 47.305 C 7.877 48.353 7.031 49.59 6.03 50.824 C 11.963 57.591 17.717 64.153 23.369 70.599 L 36.511 62.717 Z " fill="rgb(219,253,202)"/><path d=" M 65.627 33.216 C 66.026 32.667 66.396 32.098 66.736 31.512 C 68.36 28.415 69.879 25.261 71.593 22.216 C 71.956 21.742 72.108 21.139 72.013 20.549 C 71.918 19.959 71.585 19.434 71.091 19.098 C 69.836 18.008 68.579 16.921 67.304 15.856 C 62.68 11.997 58.048 8.148 53.273 4.172 C 49.648 7.109 46.112 9.784 42.916 12.883 C 39.706 15.995 36.472 19.083 33.384 22.051 C 35.04 26.011 36.54 29.599 38.097 33.322 C 47.234 33.229 56.361 32.258 65.627 33.216 Z " fill="rgb(219,253,202)"/><path d=" M 53.919 95.739 C 57.699 91.986 61.25 88.471 64.787 84.942 C 66.416 83.317 67.985 81.631 69.644 80.038 C 70.417 79.436 70.619 78.351 70.114 77.511 C 68.837 74.604 67.718 71.627 66.468 68.707 C 65.946 67.485 65.251 66.337 64.671 65.223 C 56.562 66.3 48.645 65.689 40.93 65.272 C 39.61 69.089 38.418 72.619 37.16 76.125 C 36.699 77.159 36.981 78.374 37.851 79.099 C 40.897 82.212 43.81 85.456 46.826 88.599 C 49.131 91.001 51.517 93.327 53.919 95.739 Z " fill="rgb(219,253,202)"/><path d=" M 94.885 49.958 C 89.433 43.915 84.087 37.99 78.765 32.091 C 74.764 33.481 71.031 34.779 67.393 36.043 C 67.47 37.558 67.61 38.978 67.602 40.398 C 67.568 46.281 67.288 52.165 68.371 58.01 C 68.5 59.578 68.478 61.156 68.309 62.72 C 71.357 64.264 74.8 66.007 78.409 67.835 C 83.217 61.183 90.076 56.735 94.885 49.958 Z " fill="rgb(219,253,202)"/><path d=" M 6.511 86.337 C 7.475 87.024 8.004 87.378 8.507 87.765 C 10.382 89.229 12.075 90.914 13.547 92.783 C 15.068 94.676 16.781 96.765 18.885 97.735 C 20.743 98.592 23.257 98.026 25.481 98.087 C 25.561 98.089 25.641 98.071 25.72 98.076 C 26.544 98.149 27.301 97.621 27.518 96.823 C 28.934 93.536 30.565 90.329 31.775 86.969 C 34.064 80.618 36.142 74.19 38.246 67.773 C 38.512 66.642 38.686 65.492 38.769 64.333 C 38.119 64.454 37.484 64.643 36.874 64.898 C 32.781 67.346 28.605 69.678 24.663 72.351 C 20.454 75.205 16.448 78.363 12.4 81.448 C 10.581 82.834 8.873 84.367 6.511 86.337 L 6.511 86.337 Z " fill="rgb(219,253,202)"/><path d=" M 36.294 34.142 C 35.907 33.063 35.688 32.316 35.378 31.61 Q 30.25 19.944 25.082 8.296 C 24.454 6.923 23.73 5.595 22.917 4.323 C 21.982 2.829 21.581 2.776 20.029 3.688 C 19.542 3.948 19.094 4.273 18.696 4.656 C 15.313 8.217 11.957 11.805 8.584 15.377 C 7.675 16.339 6.737 17.273 5.743 18.291 C 6.162 18.728 6.615 19.132 7.098 19.498 C 10.389 21.562 13.633 23.716 17.021 25.609 C 21.453 28.084 25.993 30.369 30.511 32.688 C 32.175 33.542 33.842 34.525 36.294 34.142 Z " fill="rgb(219,253,202)"/><path d=" M 67.59 34.111 C 77.196 30.979 86.592 27.637 95.1 22.432 C 95.101 20.097 94.261 17.84 92.734 16.074 Q 88.193 10.698 83.572 5.391 C 83.173 5.037 82.739 4.724 82.277 4.457 C 76.559 14.034 72.929 24.463 67.59 34.111 Z " fill="rgb(219,253,202)"/><path d=" M 83.577 95.2 C 84.062 94.915 84.522 94.591 84.955 94.232 C 87.922 91.03 91.022 87.933 93.766 84.548 C 95.196 82.783 95.502 81.338 92.922 79.572 C 84.922 74.094 76.876 68.696 67.987 64.713 C 67.53 64.508 67.044 64.372 66.446 64.159 C 70.462 75.355 76.246 85.835 83.577 95.2 L 83.577 95.2 Z " fill="rgb(219,253,202)"/><path d=" M 5.924 84.05 C 11.363 80.064 16.776 76.099 22.324 72.033 C 16.327 64.986 10.487 58.276 4.046 51.545 C 4.016 52.849 3.987 53.632 3.983 54.416 C 3.954 59.322 3.937 64.228 3.904 69.135 C 3.882 72.466 3.767 75.798 3.837 79.127 C 3.823 80.986 4.578 82.767 5.924 84.05 L 5.924 84.05 Z " fill="rgb(219,253,202)"/><path d=" M 4.203 48.571 C 4.487 48.52 4.891 48.573 5.069 48.397 C 10.954 42.612 16.817 36.804 22.718 30.966 C 16.722 27.593 10.897 24.315 5.055 21.028 C 4.284 23.802 3.564 46.589 4.203 48.571 Z " fill="rgb(219,253,202)"/><path d=" M 32.459 20.048 L 52.546 1.991 C 49.402 1.706 46.239 1.691 43.092 1.947 Q 38.469 2.08 33.849 2.297 C 30.752 2.442 27.593 1.837 24.457 2.833 C 27.193 8.718 29.831 14.394 32.459 20.048 Z " fill="rgb(219,253,202)"/><path d=" M 73.19 18.354 C 75.755 13.134 78.163 8.236 80.595 3.286 C 79.66 2.3 78.398 2.523 77.255 2.394 C 75.696 2.218 74.131 2.048 72.564 2.003 Q 64.828 1.781 57.088 1.675 C 56.177 1.779 55.278 1.969 54.403 2.244 C 55.057 3.006 55.75 3.735 56.477 4.428 C 60.794 8.051 65.137 11.645 69.47 15.249 C 70.627 16.211 71.78 17.177 73.19 18.354 Z " fill="rgb(219,253,202)"/><path d=" M 95.726 52.622 C 90.713 58.34 84.348 62.582 80.152 68.928 C 85.191 72.184 90.094 75.351 95.273 78.698 C 96.349 70.047 96.501 61.305 95.726 52.622 L 95.726 52.622 Z " fill="rgb(219,253,202)"/><path d=" M 29.549 97.558 C 37.171 98.206 44.841 97.98 52.411 96.886 C 46.455 91.539 42.332 85.037 36.283 80.244 C 33.988 86.145 31.783 91.815 29.549 97.558 Z " fill="rgb(219,253,202)"/><path d=" M 71.596 80.33 C 66.404 86.105 60.487 90.729 55.888 96.777 C 64.165 95.878 72.471 96.517 80.818 95.335 L 71.596 80.33 Z " fill="rgb(219,253,202)"/><path d=" M 95.771 48.05 C 95.654 40.13 96.239 32.508 95.347 24.647 C 90.347 26.968 85.563 29.188 80.643 31.471 C 85.559 37.048 89.982 42.908 95.771 48.05 L 95.771 48.05 Z " fill="rgb(219,253,202)"/><path d=" M 64.72 35.457 L 64.474 34.735 C 55.707 34.375 46.926 34.56 38.182 35.291 C 39.556 36.82 41.028 38.259 42.588 39.598 C 43.536 40.31 44.426 41.096 45.251 41.947 C 45.821 42.716 46.77 43.106 47.716 42.961 C 50.09 42.785 52.472 42.707 54.846 42.535 C 55.392 42.518 55.923 42.352 56.381 42.053 C 59.185 39.886 61.945 37.662 64.72 35.457 L 64.72 35.457 Z " fill="rgb(219,253,202)"/><path d=" M 66.129 36.624 C 63.843 38.25 61.939 39.523 60.126 40.915 C 58.106 42.467 57.749 43.705 58.706 46.025 C 60.07 48.835 60.225 52.08 59.135 55.007 C 59.086 55.128 59.186 55.309 59.267 55.709 C 61.788 57.21 63.47 60.052 66.373 61.598 C 67.061 60.062 67.213 58.339 66.804 56.707 C 66.267 52.93 66.147 49.107 66.445 45.304 C 66.572 43.56 66.602 41.81 66.533 40.062 C 66.511 39.05 66.303 38.042 66.129 36.624 Z " fill="rgb(219,253,202)"/><path d=" M 64.261 63.474 L 64.451 62.877 C 62.486 61.046 60.386 59.337 58.609 57.339 C 57.773 56.394 56.479 55.995 55.256 56.306 C 52.736 56.509 50.192 56.394 47.662 56.492 C 46.903 56.468 46.152 56.657 45.496 57.039 C 43.654 58.415 41.921 59.938 40.167 61.43 C 39.708 61.888 39.278 62.372 38.876 62.881 C 47.607 64.767 55.93 64.335 64.261 63.474 Z " fill="rgb(219,253,202)"/><path d=" M 37.588 61.434 C 40.516 59.114 42.975 57.165 45.309 55.315 C 45.051 52.993 44.959 50.655 45.034 48.319 C 45.394 44.715 45.327 44.074 42.601 41.837 C 42.235 41.536 41.809 41.31 41.432 41.023 C 40.081 39.993 38.738 38.952 37.336 37.872 C 36.884 45.722 36.968 53.595 37.588 61.434 L 37.588 61.434 Z " fill="rgb(219,253,202)"/><path d=" M 56.782 44.097 C 53.543 44.267 50.391 44.433 47.065 44.607 C 46.862 45.395 46.707 46.194 46.604 47.001 C 46.495 48.663 46.501 50.332 46.421 51.996 C 46.314 54.187 46.858 54.945 49.039 54.987 C 51.093 55.027 53.152 54.768 55.21 54.707 C 57.962 54.627 58.39 53.64 58.431 50.586 C 58.388 50.11 58.284 49.643 58.122 49.194 C 57.707 47.597 57.284 46.002 56.782 44.097 Z " fill="rgb(219,253,202)"/></g><path d=" M 97.722 44.78 C 97.842 50.588 98.128 56.398 98.034 62.201 C 97.943 67.84 97.475 73.473 97.14 79.107 C 97.077 80.179 96.884 81.245 96.72 82.308 C 96.17 85.882 93.381 87.975 91.246 90.488 C 90.201 91.466 89.21 92.498 88.276 93.582 C 86.206 96.649 83.097 97.373 79.78 97.559 C 71.53 98.023 63.273 98.37 55.021 98.791 C 52.006 98.945 48.979 99.036 45.987 99.399 C 40.902 100.016 35.823 99.586 30.741 99.605 C 27.723 99.617 24.707 99.885 21.688 99.986 C 20.734 100.031 19.777 99.966 18.837 99.794 C 18.139 99.689 17.486 99.384 16.957 98.917 C 14.882 96.737 12.925 94.445 10.877 92.238 C 10.051 91.269 9.114 90.4 8.087 89.648 C 5.706 87.891 3.861 85.505 2.761 82.758 C 1.613 80.344 2.016 77.741 2.014 75.222 C 2.008 68.139 2.15 61.057 2.235 53.974 C 2.332 45.859 2.493 37.745 2.497 29.63 C 2.344 26.133 2.614 22.631 3.301 19.199 C 3.529 18.209 3.994 17.29 4.658 16.521 C 8.603 12.261 12.643 8.088 16.636 3.872 C 18.121 2.175 20.212 1.128 22.46 0.953 C 32.15 0.289 41.852 0.099 51.561 0.131 C 54.505 0.141 57.451 -0.055 60.393 0.015 C 65.083 0.127 69.77 0.37 74.457 0.585 C 76.04 0.608 77.621 0.734 79.189 0.959 C 82.372 1.521 84.405 3.782 86.397 6.092 Q 90.046 10.324 93.803 14.463 C 95.508 16.028 96.573 18.17 96.79 20.474 C 96.907 23.409 97.265 26.334 97.371 29.269 C 97.559 34.437 97.635 39.609 97.758 44.78 L 97.722 44.78 Z  M 36.511 62.717 C 36.238 61.625 36.053 60.513 35.957 59.392 C 35.863 54.061 35.893 48.729 35.815 43.398 C 35.782 41.115 35.595 38.834 35.495 36.891 C 32.104 35.309 29.039 33.986 26.083 32.453 C 25.591 32.115 24.983 31.99 24.398 32.106 C 23.812 32.221 23.298 32.568 22.971 33.068 C 22.241 33.904 21.518 34.751 20.734 35.534 C 16.799 39.463 12.822 43.35 8.913 47.305 C 7.877 48.353 7.031 49.59 6.03 50.824 C 11.963 57.591 17.717 64.153 23.369 70.599 L 36.511 62.717 Z  M 65.627 33.216 C 66.026 32.667 66.396 32.098 66.736 31.512 C 68.36 28.415 69.879 25.261 71.593 22.216 C 71.956 21.742 72.108 21.139 72.013 20.549 C 71.918 19.959 71.585 19.434 71.091 19.098 C 69.836 18.008 68.579 16.921 67.304 15.856 C 62.68 11.997 58.048 8.148 53.273 4.172 C 49.648 7.109 46.112 9.784 42.916 12.883 C 39.706 15.995 36.472 19.083 33.384 22.051 C 35.04 26.011 36.54 29.599 38.097 33.322 C 47.234 33.229 56.361 32.258 65.627 33.216 Z  M 53.919 95.739 C 57.699 91.986 61.25 88.471 64.787 84.942 C 66.416 83.317 67.985 81.631 69.644 80.038 C 70.417 79.436 70.619 78.351 70.114 77.511 C 68.837 74.604 67.718 71.627 66.468 68.707 C 65.946 67.485 65.251 66.337 64.671 65.223 C 56.562 66.3 48.645 65.689 40.93 65.272 C 39.61 69.089 38.418 72.619 37.16 76.125 C 36.699 77.159 36.981 78.374 37.851 79.099 C 40.897 82.212 43.81 85.456 46.826 88.599 C 49.131 91.001 51.517 93.327 53.919 95.739 Z  M 94.885 49.958 C 89.433 43.915 84.087 37.99 78.765 32.091 C 74.764 33.481 71.031 34.779 67.393 36.043 C 67.47 37.558 67.61 38.978 67.602 40.398 C 67.568 46.281 67.288 52.165 68.371 58.01 C 68.5 59.578 68.478 61.156 68.309 62.72 C 71.357 64.264 74.8 66.007 78.409 67.835 C 83.217 61.183 90.076 56.735 94.885 49.958 Z  M 6.511 86.337 C 7.475 87.024 8.004 87.378 8.507 87.765 C 10.382 89.229 12.075 90.914 13.547 92.783 C 15.068 94.676 16.781 96.765 18.885 97.735 C 20.743 98.592 23.257 98.026 25.481 98.087 C 25.561 98.089 25.641 98.071 25.72 98.076 C 26.544 98.149 27.301 97.621 27.518 96.823 C 28.934 93.536 30.565 90.329 31.775 86.969 C 34.064 80.618 36.142 74.19 38.246 67.773 C 38.512 66.642 38.686 65.492 38.769 64.333 C 38.119 64.454 37.484 64.643 36.874 64.898 C 32.781 67.346 28.605 69.678 24.663 72.351 C 20.454 75.205 16.448 78.363 12.4 81.448 C 10.581 82.834 8.873 84.367 6.511 86.337 L 6.511 86.337 Z  M 36.294 34.142 C 35.907 33.063 35.688 32.316 35.378 31.61 Q 30.25 19.944 25.082 8.296 C 24.454 6.923 23.73 5.595 22.917 4.323 C 21.982 2.829 21.581 2.776 20.029 3.688 C 19.542 3.948 19.094 4.273 18.696 4.656 C 15.313 8.217 11.957 11.805 8.584 15.377 C 7.675 16.339 6.737 17.273 5.743 18.291 C 6.162 18.728 6.615 19.132 7.098 19.498 C 10.389 21.562 13.633 23.716 17.021 25.609 C 21.453 28.084 25.993 30.369 30.511 32.688 C 32.175 33.542 33.842 34.525 36.294 34.142 Z  M 67.59 34.111 C 77.196 30.979 86.592 27.637 95.1 22.432 C 95.101 20.097 94.261 17.84 92.734 16.074 Q 88.193 10.698 83.572 5.391 C 83.173 5.037 82.739 4.724 82.277 4.457 C 76.559 14.034 72.929 24.463 67.59 34.111 Z  M 83.577 95.2 C 84.062 94.915 84.522 94.591 84.955 94.232 C 87.922 91.03 91.022 87.933 93.766 84.548 C 95.196 82.783 95.502 81.338 92.922 79.572 C 84.922 74.094 76.876 68.696 67.987 64.713 C 67.53 64.508 67.044 64.372 66.446 64.159 C 70.462 75.355 76.246 85.835 83.577 95.2 L 83.577 95.2 Z  M 5.924 84.05 C 11.363 80.064 16.776 76.099 22.324 72.033 C 16.327 64.986 10.487 58.276 4.046 51.545 C 4.016 52.849 3.987 53.632 3.983 54.416 C 3.954 59.322 3.937 64.228 3.904 69.135 C 3.882 72.466 3.767 75.798 3.837 79.127 C 3.823 80.986 4.578 82.767 5.924 84.05 L 5.924 84.05 Z  M 4.203 48.571 C 4.487 48.52 4.891 48.573 5.069 48.397 C 10.954 42.612 16.817 36.804 22.718 30.966 C 16.722 27.593 10.897 24.315 5.055 21.028 C 4.284 23.802 3.564 46.589 4.203 48.571 Z  M 32.459 20.048 L 52.546 1.991 C 49.402 1.706 46.239 1.691 43.092 1.947 Q 38.469 2.08 33.849 2.297 C 30.752 2.442 27.593 1.837 24.457 2.833 C 27.193 8.718 29.831 14.394 32.459 20.048 Z  M 73.19 18.354 C 75.755 13.134 78.163 8.236 80.595 3.286 C 79.66 2.3 78.398 2.523 77.255 2.394 C 75.696 2.218 74.131 2.048 72.564 2.003 Q 64.828 1.781 57.088 1.675 C 56.177 1.779 55.278 1.969 54.403 2.244 C 55.057 3.006 55.75 3.735 56.477 4.428 C 60.794 8.051 65.137 11.645 69.47 15.249 C 70.627 16.211 71.78 17.177 73.19 18.354 Z  M 95.726 52.622 C 90.713 58.34 84.348 62.582 80.152 68.928 C 85.191 72.184 90.094 75.351 95.273 78.698 C 96.349 70.047 96.501 61.305 95.726 52.622 L 95.726 52.622 Z  M 29.549 97.558 C 37.171 98.206 44.841 97.98 52.411 96.886 C 46.455 91.539 42.332 85.037 36.283 80.244 C 33.988 86.145 31.783 91.815 29.549 97.558 Z  M 71.596 80.33 C 66.404 86.105 60.487 90.729 55.888 96.777 C 64.165 95.878 72.471 96.517 80.818 95.335 L 71.596 80.33 Z  M 95.771 48.05 C 95.654 40.13 96.239 32.508 95.347 24.647 C 90.347 26.968 85.563 29.188 80.643 31.471 C 85.559 37.048 89.982 42.908 95.771 48.05 L 95.771 48.05 Z  M 64.72 35.457 L 64.474 34.735 C 55.707 34.375 46.926 34.56 38.182 35.291 C 39.556 36.82 41.028 38.259 42.588 39.598 C 43.536 40.31 44.426 41.096 45.251 41.947 C 45.821 42.716 46.77 43.106 47.716 42.961 C 50.09 42.785 52.472 42.707 54.846 42.535 C 55.392 42.518 55.923 42.352 56.381 42.053 C 59.185 39.886 61.945 37.662 64.72 35.457 L 64.72 35.457 Z  M 66.129 36.624 C 63.843 38.25 61.939 39.523 60.126 40.915 C 58.106 42.467 57.749 43.705 58.706 46.025 C 60.07 48.835 60.225 52.08 59.135 55.007 C 59.086 55.128 59.186 55.309 59.267 55.709 C 61.788 57.21 63.47 60.052 66.373 61.598 C 67.061 60.062 67.213 58.339 66.804 56.707 C 66.267 52.93 66.147 49.107 66.445 45.304 C 66.572 43.56 66.602 41.81 66.533 40.062 C 66.511 39.05 66.303 38.042 66.129 36.624 Z  M 64.261 63.474 L 64.451 62.877 C 62.486 61.046 60.386 59.337 58.609 57.339 C 57.773 56.394 56.479 55.995 55.256 56.306 C 52.736 56.509 50.192 56.394 47.662 56.492 C 46.903 56.468 46.152 56.657 45.496 57.039 C 43.654 58.415 41.921 59.938 40.167 61.43 C 39.708 61.888 39.278 62.372 38.876 62.881 C 47.607 64.767 55.93 64.335 64.261 63.474 Z  M 37.588 61.434 C 40.516 59.114 42.975 57.165 45.309 55.315 C 45.051 52.993 44.959 50.655 45.034 48.319 C 45.394 44.715 45.327 44.074 42.601 41.837 C 42.235 41.536 41.809 41.31 41.432 41.023 C 40.081 39.993 38.738 38.952 37.336 37.872 C 36.884 45.722 36.968 53.595 37.588 61.434 L 37.588 61.434 Z  M 56.782 44.097 C 53.543 44.267 50.391 44.433 47.065 44.607 C 46.862 45.395 46.707 46.194 46.604 47.001 C 46.495 48.663 46.501 50.332 46.421 51.996 C 46.314 54.187 46.858 54.945 49.039 54.987 C 51.093 55.027 53.152 54.768 55.21 54.707 C 57.962 54.627 58.39 53.64 58.431 50.586 C 58.388 50.11 58.284 49.643 58.122 49.194 C 57.707 47.597 57.284 46.002 56.782 44.097 Z " fill="rgb(68,204,0)"/></g></svg>