<?xml version="1.0" encoding="UTF-8" standalone="no"?><!-- Generator: Gravit.io --><svg xmlns="http://www.w3.org/2000/svg" xmlns:xlink="http://www.w3.org/1999/xlink" style="isolation:isolate" viewBox="0 0 100 100" width="100pt" height="100pt"><defs><clipPath id="_clipPath_P6CVBmvUDIP2eLrc63xZDS76hOcAR9KI"><rect width="100" height="100"/></clipPath></defs><g clip-path="url(#_clipPath_P6CVBmvUDIP2eLrc63xZDS76hOcAR9KI)"><path d="M 15 0 L 85.01 0 C 93.289 0 100.01 6.721 100.01 15 L 100.01 85 C 100.01 93.279 93.289 100 85.01 100 L 15 100 C 6.721 100 0 93.279 0 85 L 0 15 C 0 6.721 6.721 0 15 0 Z" style="stroke:none;fill:#FFFFFF;stroke-miterlimit:10;"/><g><path d=" M 95.066 29.745 C 95.098 31.316 94.7 32.864 93.916 34.225 C 92.797 36.474 91.534 38.649 90.136 40.735 C 86.646 46.425 83.306 52.205 79.666 57.795 C 75.326 64.435 70.536 70.795 65.596 76.975 C 64.345 78.574 63.186 80.244 62.126 81.975 C 59.446 86.255 55.826 89.805 52.816 93.825 C 51.876 95.085 50.266 94.675 49.106 93.185 C 44.896 87.845 40.716 82.435 36.396 77.125 C 31.896 71.575 27.396 66.065 23.256 60.225 C 21.166 57.225 19.386 54.125 17.526 51.025 C 14.766 46.455 11.846 42.025 9.196 37.345 C 7.716 34.775 6.046 32.345 5.146 29.405 C 4.79 28.457 4.882 27.398 5.396 26.525 C 6.412 24.845 7.563 23.25 8.836 21.755 C 13.026 16.455 17.776 11.615 21.836 6.185 C 22.266 5.613 22.981 5.331 23.686 5.455 C 29.026 5.755 34.356 5.765 39.686 5.735 C 46.916 5.735 54.146 5.655 61.356 6.015 C 64.806 6.185 68.266 5.935 71.706 6.295 C 73.006 6.435 74.306 5.945 75.706 6.215 C 76.881 6.36 77.955 6.951 78.706 7.865 C 79.096 8.355 79.496 8.865 79.866 9.355 C 84.276 15.355 89.176 20.985 93.926 26.735 C 94.663 27.565 95.068 28.636 95.066 29.745 L 95.066 29.745 Z " fill="rgb(251,238,224)"/><path d=" M 51.576 87.575 C 51.896 86.245 52.246 85.155 52.416 84.025 C 53.866 75.441 55.907 66.968 58.526 58.665 C 60.396 52.355 62.396 46.085 64.396 39.785 C 65.066 37.615 65.696 35.425 66.286 33.235 C 66.696 31.725 66.566 31.585 65.076 31.455 C 64.684 31.415 64.289 31.415 63.896 31.455 C 59.276 31.835 54.656 31.455 50.026 31.585 C 44.936 31.775 39.836 31.525 34.746 31.905 C 32.226 32.095 32.126 32.155 32.746 34.505 L 32.896 34.955 C 35.596 44.305 38.706 53.515 41.996 62.655 C 44.536 69.745 47.326 76.735 49.726 83.865 C 50.11 85.205 50.737 86.463 51.576 87.575 L 51.576 87.575 Z " fill="rgb(251,238,224)"/><path d=" M 92.516 31.755 C 91.516 31.235 90.516 31.625 89.666 31.615 C 83.396 31.525 77.116 31.605 70.846 31.525 C 69.649 31.333 68.52 32.14 68.316 33.335 C 67.046 37.525 65.536 41.655 64.316 45.875 C 62.796 51.225 61.086 56.515 59.456 61.875 C 57.229 69.121 55.472 76.503 54.196 83.975 C 53.809 85.77 53.604 87.599 53.586 89.435 C 54.895 88.3 56.07 87.018 57.086 85.615 C 60.696 81.075 63.906 76.235 67.406 71.615 C 72.476 65.122 77.17 58.344 81.466 51.315 C 84.096 46.865 86.696 42.395 89.576 38.085 C 90.856 36.175 92.186 34.175 92.516 31.755 Z " fill="rgb(251,238,224)"/><path d=" M 50.656 91.755 C 50.706 91.295 50.776 91.125 50.726 91.005 C 46.646 80.075 42.326 69.225 38.606 58.155 C 36.816 52.795 34.766 47.525 33.276 42.085 C 32.516 39.285 31.566 36.555 30.546 33.845 C 29.796 31.845 29.646 31.845 27.636 31.845 C 21.996 31.975 16.376 32.635 10.726 32.375 C 10.486 32.375 10.256 32.375 10.016 32.375 C 9.316 32.375 9.016 32.755 9.226 33.445 C 9.443 34.113 9.728 34.756 10.076 35.365 C 11.076 36.985 12.076 38.575 13.076 40.165 C 15.076 43.345 17.386 46.345 19.076 49.715 C 20.364 52.122 21.78 54.459 23.316 56.715 C 26.176 61.125 29.536 65.175 32.716 69.355 C 37.396 75.625 42.596 81.385 47.116 87.695 C 48.055 89.239 49.252 90.609 50.656 91.745 L 50.656 91.755 Z " fill="rgb(251,238,224)"/><path d=" M 65.096 29.615 C 65.092 28.962 64.843 28.333 64.396 27.855 C 61.686 24.105 58.866 20.435 56.306 16.575 C 54.876 14.425 53.206 12.435 51.576 10.425 C 50.666 9.305 50.276 9.345 49.316 10.335 C 49.096 10.555 48.936 10.835 48.736 11.075 C 44.606 16.075 40.736 21.365 36.426 26.245 C 35.451 27.346 34.694 28.622 34.196 30.005 C 44.686 29.945 54.836 29.845 65.096 29.615 Z " fill="rgb(251,238,224)"/><path d=" M 48.806 8.035 C 46.743 7.749 44.655 7.675 42.576 7.815 Q 34.236 7.985 25.886 8.125 C 24.206 8.125 24.096 8.245 24.446 9.835 C 24.552 10.295 24.682 10.749 24.836 11.195 C 26.656 16.775 28.836 22.195 30.416 27.905 C 30.551 28.625 30.998 29.247 31.636 29.605 C 37.226 22.455 43.246 15.615 48.806 8.035 Z " fill="rgb(251,238,224)"/><path d=" M 22.246 9.575 C 20.106 10.925 18.956 12.935 17.496 14.645 C 14.606 18.045 11.616 21.355 8.976 24.955 C 8.346 25.755 7.883 26.673 7.616 27.655 C 7.056 29.945 7.266 30.205 9.546 30.495 C 15.546 31.245 21.426 30.205 27.366 30.225 C 29.236 30.225 29.186 30.115 28.676 28.305 C 27.246 23.175 25.446 18.175 23.676 13.165 C 23.216 11.995 23.106 10.705 22.246 9.575 Z " fill="rgb(251,238,224)"/><path d=" M 92.956 28.845 C 87.956 22.145 82.496 16.065 77.736 9.465 C 77.311 9.667 76.981 10.025 76.816 10.465 C 75.176 14.355 73.486 18.235 71.906 22.145 C 71.116 24.095 70.476 26.145 69.836 28.145 C 69.406 29.505 69.656 29.875 71.046 29.885 Q 80.436 29.885 89.816 29.885 C 90.954 29.929 92.069 29.559 92.956 28.845 L 92.956 28.845 Z " fill="rgb(251,238,224)"/><path d=" M 52.206 7.965 C 52.398 8.723 52.792 9.414 53.346 9.965 C 55.626 12.965 57.876 15.965 59.986 19.065 C 61.866 21.835 63.986 24.445 66.076 27.065 C 66.476 27.585 66.796 28.345 67.856 28.065 C 69.966 22.065 72.266 16.065 74.856 10.235 C 75.676 8.405 75.466 8.165 73.396 8.035 C 73.166 8.035 72.926 8.035 72.696 8.035 C 68.546 7.905 64.406 7.705 60.256 7.655 C 57.626 7.655 54.976 7.865 52.206 7.965 Z " fill="rgb(251,238,224)"/></g><path d=" M 95.066 29.745 C 95.098 31.316 94.7 32.864 93.916 34.225 C 92.797 36.474 91.534 38.649 90.136 40.735 C 86.646 46.425 83.306 52.205 79.666 57.795 C 75.326 64.435 70.536 70.795 65.596 76.975 C 64.345 78.574 63.186 80.244 62.126 81.975 C 59.446 86.255 55.826 89.805 52.816 93.825 C 51.876 95.085 50.266 94.675 49.106 93.185 C 44.896 87.845 40.716 82.435 36.396 77.125 C 31.896 71.575 27.396 66.065 23.256 60.225 C 21.166 57.225 19.386 54.125 17.526 51.025 C 14.766 46.455 11.846 42.025 9.196 37.345 C 7.716 34.775 6.046 32.345 5.146 29.405 C 4.79 28.457 4.882 27.398 5.396 26.525 C 6.412 24.845 7.563 23.25 8.836 21.755 C 13.026 16.455 17.776 11.615 21.836 6.185 C 22.266 5.613 22.981 5.331 23.686 5.455 C 29.026 5.755 34.356 5.765 39.686 5.735 C 46.916 5.735 54.146 5.655 61.356 6.015 C 64.806 6.185 68.266 5.935 71.706 6.295 C 73.006 6.435 74.306 5.945 75.706 6.215 C 76.881 6.36 77.955 6.951 78.706 7.865 C 79.096 8.355 79.496 8.865 79.866 9.355 C 84.276 15.355 89.176 20.985 93.926 26.735 C 94.663 27.565 95.068 28.636 95.066 29.745 L 95.066 29.745 Z  M 51.576 87.575 C 51.896 86.245 52.246 85.155 52.416 84.025 C 53.866 75.441 55.907 66.968 58.526 58.665 C 60.396 52.355 62.396 46.085 64.396 39.785 C 65.066 37.615 65.696 35.425 66.286 33.235 C 66.696 31.725 66.566 31.585 65.076 31.455 C 64.684 31.415 64.289 31.415 63.896 31.455 C 59.276 31.835 54.656 31.455 50.026 31.585 C 44.936 31.775 39.836 31.525 34.746 31.905 C 32.226 32.095 32.126 32.155 32.746 34.505 L 32.896 34.955 C 35.596 44.305 38.706 53.515 41.996 62.655 C 44.536 69.745 47.326 76.735 49.726 83.865 C 50.11 85.205 50.737 86.463 51.576 87.575 L 51.576 87.575 Z  M 92.516 31.755 C 91.516 31.235 90.516 31.625 89.666 31.615 C 83.396 31.525 77.116 31.605 70.846 31.525 C 69.649 31.333 68.52 32.14 68.316 33.335 C 67.046 37.525 65.536 41.655 64.316 45.875 C 62.796 51.225 61.086 56.515 59.456 61.875 C 57.229 69.121 55.472 76.503 54.196 83.975 C 53.809 85.77 53.604 87.599 53.586 89.435 C 54.895 88.3 56.07 87.018 57.086 85.615 C 60.696 81.075 63.906 76.235 67.406 71.615 C 72.476 65.122 77.17 58.344 81.466 51.315 C 84.096 46.865 86.696 42.395 89.576 38.085 C 90.856 36.175 92.186 34.175 92.516 31.755 Z  M 50.656 91.755 C 50.706 91.295 50.776 91.125 50.726 91.005 C 46.646 80.075 42.326 69.225 38.606 58.155 C 36.816 52.795 34.766 47.525 33.276 42.085 C 32.516 39.285 31.566 36.555 30.546 33.845 C 29.796 31.845 29.646 31.845 27.636 31.845 C 21.996 31.975 16.376 32.635 10.726 32.375 C 10.486 32.375 10.256 32.375 10.016 32.375 C 9.316 32.375 9.016 32.755 9.226 33.445 C 9.443 34.113 9.728 34.756 10.076 35.365 C 11.076 36.985 12.076 38.575 13.076 40.165 C 15.076 43.345 17.386 46.345 19.076 49.715 C 20.364 52.122 21.78 54.459 23.316 56.715 C 26.176 61.125 29.536 65.175 32.716 69.355 C 37.396 75.625 42.596 81.385 47.116 87.695 C 48.055 89.239 49.252 90.609 50.656 91.745 L 50.656 91.755 Z  M 65.096 29.615 C 65.092 28.962 64.843 28.333 64.396 27.855 C 61.686 24.105 58.866 20.435 56.306 16.575 C 54.876 14.425 53.206 12.435 51.576 10.425 C 50.666 9.305 50.276 9.345 49.316 10.335 C 49.096 10.555 48.936 10.835 48.736 11.075 C 44.606 16.075 40.736 21.365 36.426 26.245 C 35.451 27.346 34.694 28.622 34.196 30.005 C 44.686 29.945 54.836 29.845 65.096 29.615 Z  M 48.806 8.035 C 46.743 7.749 44.655 7.675 42.576 7.815 Q 34.236 7.985 25.886 8.125 C 24.206 8.125 24.096 8.245 24.446 9.835 C 24.552 10.295 24.682 10.749 24.836 11.195 C 26.656 16.775 28.836 22.195 30.416 27.905 C 30.551 28.625 30.998 29.247 31.636 29.605 C 37.226 22.455 43.246 15.615 48.806 8.035 Z  M 22.246 9.575 C 20.106 10.925 18.956 12.935 17.496 14.645 C 14.606 18.045 11.616 21.355 8.976 24.955 C 8.346 25.755 7.883 26.673 7.616 27.655 C 7.056 29.945 7.266 30.205 9.546 30.495 C 15.546 31.245 21.426 30.205 27.366 30.225 C 29.236 30.225 29.186 30.115 28.676 28.305 C 27.246 23.175 25.446 18.175 23.676 13.165 C 23.216 11.995 23.106 10.705 22.246 9.575 Z  M 92.956 28.845 C 87.956 22.145 82.496 16.065 77.736 9.465 C 77.311 9.667 76.981 10.025 76.816 10.465 C 75.176 14.355 73.486 18.235 71.906 22.145 C 71.116 24.095 70.476 26.145 69.836 28.145 C 69.406 29.505 69.656 29.875 71.046 29.885 Q 80.436 29.885 89.816 29.885 C 90.954 29.929 92.069 29.559 92.956 28.845 L 92.956 28.845 Z  M 52.206 7.965 C 52.398 8.723 52.792 9.414 53.346 9.965 C 55.626 12.965 57.876 15.965 59.986 19.065 C 61.866 21.835 63.986 24.445 66.076 27.065 C 66.476 27.585 66.796 28.345 67.856 28.065 C 69.966 22.065 72.266 16.065 74.856 10.235 C 75.676 8.405 75.466 8.165 73.396 8.035 C 73.166 8.035 72.926 8.035 72.696 8.035 C 68.546 7.905 64.406 7.705 60.256 7.655 C 57.626 7.655 54.976 7.865 52.206 7.965 Z " fill="rgb(255,132,0)"/></g></svg>