<svg height='100px' width='100px'  fill="#44CC00" xmlns="http://www.w3.org/2000/svg" data-name="Слой 1" viewBox="0 0 81.90158 85.21717" x="0px" y="0px"><title>Безымянный-8</title><path d="M90.91249,45.39338c.102,4.94895.34578,9.90021.26568,14.84619-.0779,4.80534-.47694,9.606-.76184,14.40708-.05416.91334-.21831,1.8216-.35793,2.72818-.46915,3.04558-2.84583,4.82932-4.6655,6.971a34.12572,34.12572,0,0,0-2.53066,2.63643c-1.76438,2.61361-4.41388,3.2303-7.24017,3.38911-7.03083.39516-14.06719.69132-21.10013,1.05-2.56908.131-5.1491.20863-7.69894.51821-4.3334.52586-8.66107.15924-12.99212.17572-2.572.00978-5.1425.23835-7.71513.32488a10.73081,10.73081,0,0,1-2.42939-.16392,3.12482,3.12482,0,0,1-1.60223-.74726c-1.76863-1.85789-3.4364-3.81133-5.18138-5.69238a13.98838,13.98838,0,0,0-2.37818-2.207,13.566,13.566,0,0,1-4.53866-5.87137c-.97784-2.05783-.63475-4.27573-.63649-6.42251-.00487-6.03571.11618-12.07146.1882-18.10722.0825-6.9155.22007-13.831.22323-20.74653a37.036,37.036,0,0,1,.68519-8.88916,5.32512,5.32512,0,0,1,1.15623-2.28207c3.36239-3.63042,6.805-7.18639,10.20774-10.77965a7.35567,7.35567,0,0,1,4.964-2.4873c8.25744-.56608,16.52543-.72788,24.7999-.70055,2.50863.00829,5.0195-.15864,7.52588-.09887,3.99682.09529,7.99119.30215,11.98552.48545A31.58475,31.58475,0,0,1,75.118,8.049c2.71276.47869,4.44528,2.40551,6.14273,4.374q3.1102,3.60672,6.31164,7.13425a7.96616,7.96616,0,0,1,2.54545,5.12215c.1,2.50112.40447,4.99432.4953,7.49553.15995,4.40414.225,8.81166.32988,13.21779Zm-52.165,15.286a18.055,18.055,0,0,1-.47171-2.834c-.0805-4.54269-.05494-9.08715-.12117-13.63016-.02837-1.94576-.18748-3.8897-.27233-5.54477-2.89023-1.34832-5.5018-2.47607-8.02078-3.7824a1.89141,1.89141,0,0,0-2.65282.52371c-.62172.71264-1.23753,1.43422-1.906,2.10179-3.35333,3.3485-6.74282,6.661-10.0738,10.0315-.88287.89332-1.60355,1.947-2.45721,2.99911,5.05652,5.76664,9.95989,11.3586,14.77689,16.85209ZM63.5608,35.53812a17.06517,17.06517,0,0,0,.94529-1.45227c1.38364-2.6388,2.67818-5.3268,4.13838-7.92185a1.85164,1.85164,0,0,0-.42773-2.65708c-1.06883-.929-2.14-1.85578-3.22717-2.7632C61.04945,17.455,57.1022,14.17483,53.03222,10.787c-3.08885,2.503-6.10257,4.7825-8.8263,7.42358-2.73527,2.65221-5.49115,5.2832-8.123,7.813,1.41128,3.37487,2.6898,6.43221,4.01661,9.60505C47.886,35.54937,55.66407,34.72146,63.5608,35.53812ZM53.58266,88.82047c3.22136-3.19845,6.248-6.19361,9.26236-9.201,1.388-1.38476,2.72489-2.82166,4.13849-4.17921a1.65157,1.65157,0,0,0,.40093-2.15362c-1.0881-2.4778-2.042-5.01419-3.10678-7.50271-.44558-1.04133-1.03711-2.02014-1.53175-2.96893-6.9107.91716-13.65772.3971-20.23171.0418-1.12508,3.25214-2.14135,6.26037-3.2131,9.24867a2.1548,2.1548,0,0,0,.589,2.534c2.59554,2.65354,5.07774,5.41753,7.64827,8.09615C49.50308,84.78288,51.53583,86.76488,53.58266,88.82047ZM88.49451,49.80578c-4.64674-5.15027-9.20186-10.19895-13.738-15.22669-3.40917,1.18506-6.59068,2.291-9.6905,3.36849.06525,1.29086.18438,2.50129.17743,3.711-.02871,5.0136-.26754,10.02758.65606,15.009a21.21151,21.21151,0,0,1-.05357,4.01409c2.59782,1.31548,5.53155,2.80109,8.60769,4.35881C78.551,59.372,84.396,55.58129,88.49451,49.80578Zm-75.31309,31.002c.822.5861,1.27287.887,1.70137,1.21691A25.27986,25.27986,0,0,1,19.17817,86.301c1.2959,1.61368,2.75537,3.3937,4.549,4.2208,1.58318.73,3.72568.24743,5.62121.29927.06769.00183.13617-.01355.20342-.00879A1.45605,1.45605,0,0,0,31.08422,89.744c1.20673-2.801,2.59609-5.53431,3.62792-8.39727,1.95074-5.41259,3.72167-10.89062,5.51422-16.35886a18.57934,18.57934,0,0,0,.44561-2.93151,7.95667,7.95667,0,0,0-1.6149.481c-3.488,2.0867-7.0463,4.07358-10.40619,6.3519-3.58692,2.43214-7.00047,5.12309-10.45063,7.75233C16.65,77.82309,15.19472,79.129,13.18142,80.80781ZM38.56264,36.32763c-.32979-.91972-.51569-1.556-.78023-2.15775q-4.36992-9.94176-8.77412-19.86825a27.6954,27.6954,0,0,0-1.84517-3.38652c-.79719-1.273-1.139-1.31766-2.46143-.54086a5.11872,5.11872,0,0,0-1.13567.82483c-2.88351,3.03508-5.74349,6.0925-8.6177,9.13645-.77424.82-1.5738,1.61609-2.42077,2.48364a9.803,9.803,0,0,0,1.15431,1.02812C16.487,25.60624,19.251,27.442,22.13877,29.05508c3.77688,2.10977,7.64553,4.05689,11.49583,6.03281C35.05271,35.81565,36.47322,36.65384,38.56264,36.32763ZM65.2338,36.301c8.18563-2.669,16.19288-5.51745,23.44346-9.95331a8.27245,8.27245,0,0,0-2.01637-5.41815q-3.8691-4.58127-7.80772-9.10358a6.69627,6.69627,0,0,0-1.10328-.796C72.87659,19.191,69.783,28.07924,65.2338,36.301ZM78.858,88.36151a8.91942,8.91942,0,0,0,1.17364-.82557c2.529-2.72866,5.17089-5.36755,7.50882-8.25232,1.219-1.50418,1.48006-2.73549-.719-4.24114C80.004,70.3745,73.147,65.77417,65.5714,62.37988c-.38875-.17421-.8034-.29061-1.31244-.47188A94.90445,94.90445,0,0,0,78.858,88.36151ZM12.68116,78.8587c4.63568-3.39639,9.24823-6.77588,13.97663-10.24022-5.111-6.00592-10.08781-11.724-15.577-17.46034-.02511,1.11094-.04983,1.77872-.05372,2.44667-.02436,4.18113-.03917,8.36227-.06709,12.54337-.01894,2.8388-.11685,5.6788-.05729,8.51569A5.73925,5.73925,0,0,0,12.68116,78.8587ZM11.215,48.62388c.24238-.04351.586.00165.73822-.148,5.01484-4.9305,10.01139-9.87968,15.04-14.85517-5.10922-2.87483-10.07388-5.66833-15.052-8.46936C11.28375,27.51577,10.67,46.93462,11.215,48.62388ZM35.29436,24.31625,52.413,8.92852a46.988,46.988,0,0,0-8.05653-.03788q-3.93956.11334-7.877.298c-2.63941.12376-5.33135-.39179-8.00385.45706C30.80682,14.66123,33.05476,19.49767,35.29436,24.31625ZM70.006,22.87249c2.18607-4.44815,4.23742-8.62221,6.31078-12.841-.79745-.84028-1.87294-.64992-2.84672-.76-1.32835-.1502-2.66253-.2949-3.99734-.33322q-6.59342-.18932-13.18941-.27943a12.30125,12.30125,0,0,0-2.28774.48477,25.50769,25.50769,0,0,0,1.76777,1.86171c3.679,3.08749,7.37935,6.14968,11.07206,9.221C67.82138,21.04637,68.80466,21.86969,70.006,22.87249ZM89.211,52.07605c-4.27224,4.8727-9.69612,8.4883-13.27229,13.896C80.23336,68.7468,84.41109,71.4461,88.825,74.298A104.68126,104.68126,0,0,0,89.211,52.07605ZM32.815,90.37034a85.54007,85.54007,0,0,0,19.48311-.57258c-5.07612-4.5562-8.58987-10.09765-13.74493-14.18225C36.59749,80.64431,34.71832,85.47631,32.815,90.37034ZM68.64725,75.68865c-4.42432,4.92164-9.46674,8.86267-13.38651,14.01665,7.05421-.76641,14.13277-.22173,21.24571-1.22891Zm20.60206-27.5092c-.09994-6.74906.39858-13.24459-.36086-19.94339-4.26153,1.97747-8.3383,3.86915-12.53106,5.81472C80.54692,38.8035,84.3163,43.79773,89.24931,48.17945Zm-26.4618-10.7318-.20912-.61457a180.1177,180.1177,0,0,0-22.40638.47336,40.5024,40.5024,0,0,0,3.755,3.67053,19.3974,19.3974,0,0,1,2.26928,2.00158,2.2,2.2,0,0,0,2.10037.86475c2.02332-.15012,4.05284-.21692,6.07645-.3638a2.52768,2.52768,0,0,0,1.30775-.41044C58.071,41.22275,60.4232,39.32735,62.78751,37.44765Zm1.20077.99467c-1.94806,1.38565-3.57082,2.47069-5.11554,3.65726-1.72169,1.32256-2.02563,2.37742-1.21016,4.35456a9.74242,9.74242,0,0,1,.36547,7.65414c-.04148.10316.04372.25732.11216.59814,2.14892,1.27949,3.58207,3.70112,6.05653,5.01868a6.39309,6.39309,0,0,0,.36665-4.168,44.44405,44.44405,0,0,1-.3057-9.7173,39.85413,39.85413,0,0,0,.07534-4.46757C64.314,40.5097,64.137,39.65063,63.98828,38.44232Zm-1.5915,22.88152.16127-.50888c-1.674-1.55989-3.464-3.01657-4.97781-4.71886a2.87083,2.87083,0,0,0-2.858-.88047c-2.14724.17266-4.31494.07469-6.47147.15848a3.453,3.453,0,0,0-1.84619.46622c-1.56955,1.17287-3.0465,2.47079-4.5413,3.74163a14.06709,14.06709,0,0,0-1.0997,1.23685C48.20418,62.42632,55.29681,62.05765,62.39678,61.32384Zm-22.7307-1.73826c2.49528-1.97746,4.59039-3.63782,6.57967-5.2143a41.82646,41.82646,0,0,1-.23442-5.96194c.30673-3.07161.24921-3.61813-2.07341-5.52454-.3118-.25591-.67465-.4487-.99633-.69379-1.15174-.87751-2.29592-1.76486-3.49055-2.68521A147.30154,147.30154,0,0,0,39.66608,59.58558ZM56.02324,44.81124c-2.761.145-5.44666.286-8.281.43482a16.6326,16.6326,0,0,0-.39348,2.03978c-.09286,1.41617-.08714,2.83855-.15585,4.25671-.0905,1.86691.37247,2.51285,2.231,2.549,1.7508.03408,3.50507-.18689,5.25947-.2384,2.34494-.06878,2.70988-.90958,2.74478-3.5125a4.69928,4.69928,0,0,0-.26364-1.18576C56.81079,47.79382,56.45039,46.43446,56.02324,44.81124Z" transform="translate(-9.29247 -7.23147)"></path></svg>