<svg height='100px' width='100px'  fill="#FF8400" xmlns="http://www.w3.org/2000/svg" data-name="Слой 1" viewBox="0 0 100 100" x="0px" y="0px"><title>бриллиант плоский </title><path d="M94.67,30.22a8.63,8.63,0,0,1-1.15,4.48,58.64,58.64,0,0,1-3.78,6.51c-3.49,5.69-6.83,11.47-10.47,17.06-4.34,6.64-9.13,13-14.07,19.18a53,53,0,0,0-3.47,5c-2.68,4.28-6.3,7.83-9.31,11.85-.94,1.26-2.55.85-3.71-.64C44.5,88.32,40.32,82.91,36,77.6c-4.5-5.55-9-11.06-13.14-16.9-2.09-3-3.87-6.1-5.73-9.2-2.76-4.57-5.68-9-8.33-13.68-1.48-2.57-3.15-5-4.05-7.94A3.35,3.35,0,0,1,5,27a36.37,36.37,0,0,1,3.44-4.77c4.19-5.3,8.94-10.14,13-15.57a1.9,1.9,0,0,1,1.85-.73c5.34.3,10.67.31,16,.28,7.23,0,14.46-.08,21.67.28,3.45.17,6.91-.08,10.35.28,1.3.14,2.6-.35,4-.08a4.61,4.61,0,0,1,3,1.65c.39.49.79,1,1.16,1.49,4.41,6,9.31,11.63,14.06,17.38A4.52,4.52,0,0,1,94.67,30.22ZM51.18,88.05c.32-1.33.67-2.42.84-3.55a188.77,188.77,0,0,1,6.11-25.36C60,52.83,62,46.56,64,40.26c.67-2.17,1.3-4.36,1.89-6.55.41-1.51.28-1.65-1.21-1.78a5.82,5.82,0,0,0-1.18,0c-4.62.38-9.24,0-13.87.13-5.09.19-10.19-.06-15.28.32-2.52.19-2.62.25-2,2.6l.15.45c2.7,9.35,5.81,18.56,9.1,27.7,2.54,7.09,5.33,14.08,7.73,21.21A11.36,11.36,0,0,0,51.18,88.05ZM92.12,32.23c-1-.52-2-.13-2.85-.14C83,32,76.72,32.08,70.45,32a2.21,2.21,0,0,0-2.53,1.81c-1.27,4.19-2.78,8.32-4,12.54-1.52,5.35-3.23,10.64-4.86,16A176,176,0,0,0,53.8,84.45a27.14,27.14,0,0,0-.61,5.46,22.64,22.64,0,0,0,3.5-3.82c3.61-4.54,6.82-9.38,10.32-14A216.16,216.16,0,0,0,81.07,51.79c2.63-4.45,5.23-8.92,8.11-13.23C90.46,36.65,91.79,34.65,92.12,32.23Zm-41.86,60c.05-.46.12-.63.07-.75-4.08-10.93-8.4-21.78-12.12-32.85C36.42,53.27,34.37,48,32.88,42.56c-.76-2.8-1.71-5.53-2.73-8.24-.75-2-.9-2-2.91-2-5.64.13-11.26.79-16.91.53-.24,0-.47,0-.71,0-.7,0-1,.38-.79,1.07a10.29,10.29,0,0,0,.85,1.92c1,1.62,2,3.21,3,4.8,2,3.18,4.31,6.18,6,9.55a76.81,76.81,0,0,0,4.24,7c2.86,4.41,6.22,8.46,9.4,12.64C37,76.1,42.2,81.86,46.72,88.17A15.73,15.73,0,0,0,50.26,92.22ZM64.7,30.09A2.6,2.6,0,0,0,64,28.33c-2.71-3.75-5.53-7.42-8.09-11.28-1.43-2.15-3.1-4.14-4.73-6.15-.91-1.12-1.3-1.08-2.26-.09-.22.22-.38.5-.58.74-4.13,5-8,10.29-12.31,15.17a11.57,11.57,0,0,0-2.23,3.76C44.29,30.42,54.44,30.32,64.7,30.09ZM48.41,8.51a30.44,30.44,0,0,0-6.23-.22q-8.34.17-16.69.31c-1.68,0-1.79.12-1.44,1.71a13.14,13.14,0,0,0,.39,1.36c1.82,5.58,4,11,5.58,16.71a2.47,2.47,0,0,0,1.22,1.7C36.83,22.93,42.85,16.09,48.41,8.51ZM21.85,10.05c-2.14,1.35-3.29,3.36-4.75,5.07-2.89,3.4-5.88,6.71-8.52,10.31a7.56,7.56,0,0,0-1.36,2.7c-.56,2.29-.35,2.55,1.93,2.84,6,.75,11.88-.29,17.82-.27,1.87,0,1.82-.11,1.31-1.92-1.43-5.13-3.23-10.13-5-15.14C22.82,12.47,22.71,11.18,21.85,10.05ZM92.56,29.32c-5-6.7-10.46-12.78-15.22-19.38a1.81,1.81,0,0,0-.92,1c-1.64,3.89-3.33,7.77-4.91,11.68-.79,1.95-1.43,4-2.07,6-.43,1.36-.18,1.73,1.21,1.74q9.39,0,18.77,0A4.72,4.72,0,0,0,92.56,29.32ZM51.81,8.44a4.31,4.31,0,0,0,1.14,2c2.28,3,4.53,6,6.64,9.1,1.88,2.77,4,5.38,6.09,8,.4.52.72,1.28,1.78,1,2.11-6,4.41-12,7-17.83.82-1.83.61-2.07-1.46-2.2-.23,0-.47,0-.7,0-4.15-.13-8.29-.33-12.44-.38C57.23,8.13,54.58,8.34,51.81,8.44Z"></path></svg>