<svg height='100px' width='100px'  fill="#E600A8" xmlns="http://www.w3.org/2000/svg" xmlns:xlink="http://www.w3.org/1999/xlink" version="1.0" x="0px" y="0px" viewBox="0 0 100 100" enable-background="new 0 0 100 100" xml:space="preserve"><g><path fill="#E600A8" d="M76.663,45.774c0.001-0.021-0.005-0.041-0.007-0.062c-0.003-0.028-0.006-0.055-0.014-0.082   c-0.004-0.016-0.007-0.032-0.013-0.048c-0.003-0.006-0.001-0.012-0.004-0.018c-0.006-0.014-0.019-0.023-0.025-0.037   c-0.014-0.025-0.027-0.047-0.045-0.07c-0.008-0.01-0.011-0.022-0.02-0.032L50.371,16.592c-0.006-0.006-0.014-0.009-0.02-0.015   c-0.006-0.006-0.008-0.014-0.015-0.02c-0.019-0.018-0.043-0.024-0.064-0.038c-0.028-0.019-0.055-0.039-0.086-0.051   c-0.03-0.012-0.06-0.017-0.092-0.022c-0.031-0.006-0.062-0.014-0.094-0.014c-0.032,0-0.062,0.008-0.094,0.014   c-0.031,0.006-0.062,0.01-0.092,0.022s-0.056,0.032-0.084,0.05c-0.022,0.014-0.046,0.021-0.066,0.04   c-0.006,0.006-0.009,0.014-0.015,0.02c-0.006,0.006-0.014,0.008-0.02,0.014L23.464,45.426c-0.009,0.01-0.011,0.021-0.019,0.032   c-0.018,0.023-0.033,0.047-0.046,0.073c-0.007,0.013-0.018,0.021-0.024,0.035c-0.002,0.005-0.001,0.011-0.003,0.017   c-0.006,0.016-0.009,0.032-0.014,0.048c-0.008,0.028-0.011,0.055-0.014,0.084c-0.002,0.02-0.007,0.039-0.007,0.059   c0,0.016,0.004,0.03,0.006,0.046c0.003,0.027,0.01,0.053,0.018,0.08c0.006,0.02,0.008,0.041,0.017,0.06   c0.007,0.016,0.018,0.028,0.026,0.043c0.006,0.012,0.007,0.025,0.015,0.036l26.165,39.382c0.034,0.052,0.079,0.097,0.132,0.134   c0.003,0.002,0.005,0.005,0.008,0.008h0c0.007,0.005,0.015,0.003,0.022,0.007c0.077,0.046,0.161,0.075,0.25,0.076   c0.001,0,0.002,0.001,0.004,0.001c0,0,0,0,0,0l0,0l0,0c0,0,0,0,0,0c0.001,0,0.002-0.001,0.004-0.001   c0.089-0.001,0.174-0.03,0.25-0.076c0.007-0.004,0.015-0.002,0.022-0.007h0c0.003-0.003,0.005-0.006,0.008-0.008   c0.053-0.037,0.099-0.082,0.132-0.134l26.165-39.382c0.008-0.011,0.008-0.024,0.015-0.035c0.008-0.015,0.02-0.028,0.026-0.044   c0.008-0.02,0.011-0.041,0.017-0.062c0.008-0.026,0.015-0.052,0.018-0.079C76.659,45.804,76.663,45.79,76.663,45.774z    M63.103,51.538L50,83.817L36.898,51.538H63.103z M36.898,50.538L50,18.257l13.102,32.281H36.898z M64.116,50.378L51.523,19.349   l23.801,26.229L64.116,50.378z M35.884,50.378l-11.208-4.8l23.802-26.229L35.884,50.378z M35.77,51.417l11.9,29.318L25.179,46.881   L35.77,51.417z M64.23,51.418l10.592-4.537L52.33,80.736L64.23,51.418z"></path></g></svg>